<svg id="Layer_1" data-name="Layer 1" xmlns="http://www.w3.org/2000/svg" viewBox="0 0 240 240"><defs><style>.cls-1{fill:#fecf16;}</style></defs><path class="cls-1" d="M191.32,120.38c0,27.61-18.08,52.81-43,62.73-10.56,4.21-21.59,6.24-33,4.16-4.65-.85-9.22-2.27-13.9-2.74-2.62-.27-5.43.67-8.07,1.39-9.88,2.69-19.72,5.51-29.58,8.29-2.6.74-5.22,1.43-7.77,2.29-2.28.77-4.44,1-6.2-.95s-1.15-3.87-.31-6c4.5-11.38,8.84-22.84,13.46-34.18a6.41,6.41,0,0,0-.46-5.78,62.17,62.17,0,0,1-6.75-31.46C56.93,95.46,67,77.53,85.63,64.47a61.87,61.87,0,0,1,21.81-9.71,68.34,68.34,0,0,1,26-1,66.66,66.66,0,0,1,40.21,21.7,62.46,62.46,0,0,1,14.79,27.25C189.87,108.46,190.38,114.47,191.32,120.38Z"/><path d="M105.67,114.24l.63.94c.81-.17,1.62-.31,2.42-.49,5.53-1.3,8.44,1.73,7,7.27-1.76,6.81-3.55,13.62-5.27,20.44-1.38,5.48,1.28,10.27,6.72,11.67,5.64,1.46,10.89-.19,15.88-2.76.67-.34,1-1.37,1.67-2.43a17.61,17.61,0,0,0-2.29-.13c-7.84.7-9.31-.95-7.79-8.81.11-.57.35-1.11.5-1.67,1.52-5.67,3.28-11.29,4.5-17,1.74-8.12-3.54-13.5-11.82-12.16a50,50,0,0,0-9.18,2.61C107.5,112.11,106.65,113.37,105.67,114.24Z"/><path d="M127.27,100.66c4.49.09,8.65-3.53,8.75-7.62s-3.7-7.78-8.37-7.93c-4.27-.13-8.6,3.71-8.71,7.72C118.85,96.56,123.11,100.57,127.27,100.66Z"/></svg>