<svg id="Layer_1" data-name="Layer 1" xmlns="http://www.w3.org/2000/svg" viewBox="0 0 240 240"><defs><style>.cls-1{fill:#010101;stroke:#010101;stroke-miterlimit:10;stroke-width:3.9px;}.cls-2{fill:#fff;}.cls-3{fill:#fecf16;}</style></defs><path class="cls-1" d="M177.78,62.22A81.72,81.72,0,1,0,201.71,120a81.5,81.5,0,0,0-23.93-57.78Z"/><path class="cls-2" d="M173.11,66.89a75.11,75.11,0,1,0,22,53.11,74.88,74.88,0,0,0-22-53.11Z"/><path class="cls-3" d="M131.52,141.15l11.69-10.42,26.58,22c-7,9.28-14,16.52-24.91,17.1C125,170.81,69.19,115,70.22,95.12c.58-11,7.82-17.9,17.1-24.91l22,26.58L98.85,108.48c6.68,12.59,20.08,26,32.67,32.67Z"/><path d="M121.09,68.69a55.82,55.82,0,0,1,26.4,7.39c14.35,8.35,23.51,20.65,27.25,36.86a74.94,74.94,0,0,1,1.21,8.61,2.89,2.89,0,0,1-2.61,3.47c-1.73.14-3-1.13-3.14-3.14q-2.64-29.59-29.29-42.71a48,48,0,0,0-23.06-4.62,5.91,5.91,0,0,1-2.1-.23,2.83,2.83,0,0,1,.7-5.38C118,68.76,119.54,68.77,121.09,68.69Z"/><path d="M124.62,85.8c15.24,1.17,26,8.6,31.81,22.89a29.18,29.18,0,0,1,2.07,10,2.78,2.78,0,0,1-2.55,3.15,2.74,2.74,0,0,1-3.14-2.68,29.67,29.67,0,0,0-5-14.73,28.46,28.46,0,0,0-14.9-11.34,31.3,31.3,0,0,0-5.22-1.42,45.21,45.21,0,0,0-5.59-.1A3,3,0,0,1,119,88.79a2.91,2.91,0,0,1,2.92-3l.35,0Z"/></svg>