<svg id="Layer_1" data-name="Layer 1" xmlns="http://www.w3.org/2000/svg" viewBox="0 0 240 240"><defs><style>.cls-1{fill:#010101;}.cls-2{fill:none;stroke:#010101;stroke-miterlimit:10;stroke-width:5.33px;}.cls-3{fill:#fecf16;}</style></defs><path class="cls-1" d="M107.52,177.48h20.34V141.05H144l5.42-16.9.77-5.68-22.3.77,1-15.61a43.13,43.13,0,0,1,16-1.29s4.52-1.81,4.52-5.16-1.94-12.91-1.94-12.91-1.29-4.77-1.68-4.9-20.38-1.29-20.38-1.29l-18.71,3.74s-11.23,4.52-11.36,11.1,9.68,24,9.68,24-13.29-2.19-16.39.39,1,23.61,1.42,25,2.84,4.64,3.36,5.55S107.52,177.48,107.52,177.48Z"/><path class="cls-2" d="M119.87,50.86h32.5c19.56,0,36.4,16.25,36.61,35.85q.36,33.69-.07,67.39c-.23,18.05-16.66,34.54-34.7,34.79q-33.69.47-67.38.05c-19.71-.26-35.78-16.85-35.88-36.56q-.16-32.31,0-64.62A37.17,37.17,0,0,1,88.16,50.89h31.71Z"/><path class="cls-3" d="M127.17,177.48c9.13,0,18.12.4,26.93-.57,13.32-1.46,23.06-12.93,23.18-26.33.19-20.48.24-41,0-61.42a27.08,27.08,0,0,0-27.08-26.59q-30.14-.07-60.29,0A27.25,27.25,0,0,0,62.64,89.74q-.15,30.15,0,60.31a27.3,27.3,0,0,0,17.76,25.56c13.3,2.84,10.19,1.76,27.16,1.87,0-12.86,0-25.17,0-37.9H92.39V120.25H107.7c0-1.74,0-3.06,0-4.39.07-5.83-.12-11.68.3-17.48.54-7.63,6.45-15.17,13.82-16.06,7.76-.93,15.73-.21,23.76-.21v18.74c-4.19,0-8.14-.06-12.08,0-3.14.06-6,1.27-6.23,4.64-.4,4.76-.11,9.58-.11,14.76h20.05c-1.12,5.66-2.38,10.81-3.1,16-.4,3-1.81,3.52-4.41,3.42-4.16-.17-8.33,0-12.53,0Z"/></svg>