<svg id="Layer_1" data-name="Layer 1" xmlns="http://www.w3.org/2000/svg" viewBox="0 0 240 240"><defs><style>.cls-1{fill:#fecf16;}.cls-2{fill:none;stroke:#231f20;stroke-miterlimit:10;stroke-width:6px;}</style></defs><path class="cls-1" d="M172.84,93a33.91,33.91,0,0,0-9.13-13.6,21.16,21.16,0,0,0-28,0A33.81,33.81,0,0,0,126.63,93c-7.3,19.07-7.9,33.67,0,43.79,8.63,11.07,18,11.48,18.38,18.37l-1.07,44.43a82.36,82.36,0,0,0,11.48-4.72l-1-39.71c.42-6.89,9.75-7.3,18.39-18.37C180.73,126.68,180.13,112.08,172.84,93Z"/><path class="cls-1" d="M101.9,75.41a2.2,2.2,0,0,0-1.77,2.25l1.49,54.07a2.15,2.15,0,0,1-2.14,2.2H98.23a2.14,2.14,0,0,1-2.14-2.14V77.53A2.14,2.14,0,0,0,94,75.38h-.06a2.15,2.15,0,0,0-2.15,2.15V132a2.14,2.14,0,0,1-2.14,2.14h-.68A2.14,2.14,0,0,1,86.77,132V77.53a2.14,2.14,0,0,0-2.14-2.15h-.06a2.14,2.14,0,0,0-2.14,2.15v54.26a2.14,2.14,0,0,1-2.15,2.14H79a2.14,2.14,0,0,1-2.14-2.2l1.48-54.07a2.19,2.19,0,0,0-1.77-2.25,2.15,2.15,0,0,0-2.49,1.83c-1.42,10.54-8.21,62.59-4.05,67,4.63,4.85,14.12,9.92,14.34,11.91,0,.07-.38,16.78-.91,39.23a82,82,0,0,0,11.63,4.6c-.59-24.72-1-43.76-1-43.83.22-2,9.7-7.06,14.33-11.91,4.16-4.36-2.62-56.41-4-66.95A2.15,2.15,0,0,0,101.9,75.41Z"/><circle class="cls-2" cx="120" cy="120" r="83.69"/></svg>