<?xml version="1.0" encoding="utf-8"?>
<!-- Generator: Adobe Illustrator 27.0.0, SVG Export Plug-In . SVG Version: 6.00 Build 0)  -->
<svg version="1.1" id="Layer_1" xmlns="http://www.w3.org/2000/svg" xmlns:xlink="http://www.w3.org/1999/xlink" x="0px" y="0px"
	 viewBox="0 0 190.51 190.51" style="enable-background:new 0 0 190.51 190.51;" xml:space="preserve">
<style type="text/css">
	.st0{fill-rule:evenodd;clip-rule:evenodd;fill:#F9CC1A;}
</style>
<g>
	<path d="M98.04,22.14c0,1.54-1.22,2.76-2.76,2.76s-2.8-1.22-2.8-2.76V10.26c0-1.54,1.26-2.8,2.8-2.8s2.76,1.26,2.76,2.8V22.14z"/>
	<path d="M134.21,33.3c-0.75,1.34-2.44,1.77-3.79,1.03c-1.3-0.75-1.78-2.45-1.03-3.79l5.96-10.3c0.75-1.3,2.45-1.77,3.79-1.03
		c1.34,0.79,1.77,2.49,1.03,3.79L134.21,33.3z"/>
	<path d="M159.97,61.11c-1.34,0.75-3.04,0.31-3.79-1.03c-0.79-1.34-0.31-3.04,0.99-3.79l10.3-5.96c1.34-0.75,3.04-0.32,3.83,1.03
		c0.75,1.3,0.32,3-1.03,3.79L159.97,61.11z"/>
	<path d="M168.37,98.04c-1.54,0-2.8-1.26-2.8-2.8c0-1.54,1.26-2.76,2.8-2.76h11.87c1.54,0,2.8,1.22,2.8,2.76
		c0,1.54-1.26,2.8-2.8,2.8H168.37z"/>
	<path d="M157.21,134.21c-1.34-0.75-1.81-2.44-1.03-3.79c0.75-1.34,2.45-1.77,3.79-1.03l10.3,5.96c1.3,0.75,1.77,2.45,1.03,3.79
		c-0.79,1.3-2.49,1.78-3.79,1.02L157.21,134.21z"/>
	<path d="M129.4,159.97c-0.75-1.34-0.32-3.04,1.03-3.79c1.34-0.79,3.04-0.31,3.79,0.99l5.96,10.3c0.75,1.34,0.32,3.04-1.03,3.79
		c-1.3,0.79-3.04,0.32-3.79-0.99L129.4,159.97z"/>
	<path d="M92.47,168.37c0-1.54,1.26-2.8,2.8-2.8s2.76,1.26,2.76,2.8v11.87c0,1.54-1.22,2.8-2.76,2.8s-2.8-1.26-2.8-2.8V168.37z"/>
	<path d="M56.3,157.21c0.75-1.34,2.45-1.81,3.79-1.03c1.3,0.75,1.78,2.45,1.03,3.79l-5.96,10.26c-0.75,1.34-2.45,1.81-3.79,1.03
		c-1.3-0.75-1.78-2.45-1.03-3.79L56.3,157.21z"/>
	<path d="M30.54,129.4c1.34-0.75,3.04-0.32,3.79,1.03c0.79,1.3,0.32,3.04-0.99,3.79l-10.3,5.96c-1.34,0.75-3.04,0.32-3.79-1.02
		c-0.79-1.34-0.32-3.04,0.99-3.79L30.54,129.4z"/>
	<path d="M22.14,92.47c1.54,0,2.8,1.22,2.8,2.76c0,1.54-1.26,2.8-2.8,2.8H10.26c-1.54,0-2.8-1.26-2.8-2.8c0-1.54,1.26-2.76,2.8-2.76
		H22.14z"/>
	<path d="M33.3,56.3c1.34,0.75,1.81,2.45,1.03,3.79c-0.75,1.3-2.45,1.77-3.79,1.03l-10.3-5.96c-1.3-0.75-1.77-2.45-0.99-3.79
		c0.75-1.34,2.45-1.77,3.75-1.03L33.3,56.3z"/>
	<path d="M61.11,30.54c0.75,1.34,0.31,3.04-1.03,3.79c-1.34,0.79-3.04,0.32-3.79-0.99l-5.96-10.3c-0.75-1.34-0.32-3.04,1.03-3.83
		c1.34-0.75,3.04-0.32,3.79,1.03L61.11,30.54z"/>
	<path class="st0" d="M43.24,67.42h36.81v22.29H43.24V67.42z M110.46,67.42h36.85v22.29h-36.85V67.42z"/>
	<path d="M43.24,64.66h104.06c1.54,0,2.76,1.22,2.76,2.76v22.29c0,1.5-1.22,2.76-2.76,2.76H43.24c-1.54,0-2.8-1.26-2.8-2.76V67.42
		C40.44,65.89,41.7,64.66,43.24,64.66L43.24,64.66z M144.51,70.23H46v16.69h98.5V70.23z"/>
	<path class="st0" d="M49.2,89.71h34.75v57.55H49.2V89.71z M106.6,89.71h34.75v57.55H106.6V89.71z"/>
	<path d="M49.2,86.91h92.15c1.54,0,2.76,1.26,2.76,2.8v57.55c0,1.54-1.22,2.8-2.76,2.8H49.2c-1.54,0-2.8-1.26-2.8-2.8V89.71
		C46.4,88.17,47.66,86.91,49.2,86.91L49.2,86.91z M138.55,92.47H51.96v52.03h86.59V92.47z"/>
	<path d="M90.62,63.91c-2.01-4.1-4.22-7.61-6.67-10.37c-3.04-3.47-6.39-5.84-10.02-6.9c-2.68-0.79-4.73-0.79-6.08-0.28
		c-0.71,0.28-1.18,0.67-1.5,1.14c-0.32,0.51-0.43,1.14-0.39,1.86c0.08,1.3,0.71,2.8,1.97,4.22c2.64,2.88,6.27,5.17,10.53,6.9
		C82.14,61.98,86.28,63.09,90.62,63.91L90.62,63.91z M88.13,49.87c3.71,4.22,6.94,9.78,9.67,16.49c0.2,0.43,0.28,0.95,0.2,1.42
		c-0.2,1.54-1.58,2.6-3.12,2.41c-6.59-0.87-12.98-2.33-18.5-4.58c-5.05-2.05-9.35-4.77-12.58-8.32c-2.13-2.37-3.23-5.09-3.39-7.65
		c-0.08-1.81,0.32-3.55,1.22-5.01c0.95-1.54,2.37-2.72,4.22-3.47c2.45-0.91,5.68-1.03,9.67,0.16
		C80.17,42.69,84.39,45.61,88.13,49.87L88.13,49.87z"/>
	<path d="M92.71,66.36c2.72-6.71,5.96-12.27,9.67-16.49c3.75-4.26,7.97-7.18,12.62-8.56c3.98-1.18,7.22-1.06,9.67-0.16
		c1.89,0.75,3.27,1.93,4.22,3.47c0.91,1.46,1.3,3.2,1.22,5.01c-0.16,2.56-1.26,5.29-3.39,7.65c-3.2,3.55-7.54,6.27-12.59,8.32
		c-5.52,2.25-11.91,3.71-18.5,4.58c-1.54,0.2-2.92-0.87-3.12-2.41C92.43,67.31,92.51,66.79,92.71,66.36L92.71,66.36z M106.56,53.54
		c-2.45,2.76-4.65,6.27-6.67,10.37c4.34-0.83,8.48-1.93,12.19-3.43c4.22-1.74,7.85-4.02,10.49-6.9c1.26-1.42,1.89-2.92,1.97-4.22
		c0.04-0.71-0.08-1.34-0.39-1.86c-0.32-0.47-0.79-0.87-1.46-1.14c-1.38-0.51-3.43-0.51-6.11,0.28
		C112.95,47.7,109.59,50.07,106.56,53.54L106.56,53.54z"/>
	<path d="M83.95,86.91h22.64c1.5,0,2.76,1.26,2.76,2.8v57.55c0,1.54-1.26,2.8-2.76,2.8H83.95c-1.54,0-2.8-1.26-2.8-2.8V89.71
		C81.15,88.17,82.41,86.91,83.95,86.91L83.95,86.91z M103.8,92.47H86.71v52.03h17.08V92.47z"/>
	<path d="M80.05,64.66h30.41c1.54,0,2.8,1.22,2.8,2.76v22.29c0,1.5-1.26,2.76-2.8,2.76H80.05c-1.54,0-2.8-1.26-2.8-2.76V67.42
		C77.25,65.89,78.51,64.66,80.05,64.66L80.05,64.66z M107.7,70.23H82.81v16.69h24.89V70.23z"/>
</g>
</svg>
