<svg id="Layer_1" data-name="Layer 1" xmlns="http://www.w3.org/2000/svg" viewBox="0 0 240 240"><defs><style>.cls-1{fill:#fecf16;}.cls-2{fill:none;stroke:#010101;stroke-miterlimit:10;stroke-width:6px;}</style></defs><path class="cls-1" d="M119.77,53.2c10.47,0,21-.07,31.42,0a35.81,35.81,0,0,1,35.57,35.71q.13,31.23,0,62.48a35.75,35.75,0,0,1-35.47,35.36q-30.84.12-61.7,0C69,186.76,53.22,171,53.2,150.32q0-30.47,0-60.95c.06-20.35,15.83-36,36.25-36.12,10.09,0,20.18,0,30.28,0Z"/><path class="cls-2" d="M119.77,53.2c10.47,0,21-.07,31.42,0a35.81,35.81,0,0,1,35.57,35.71q.13,31.23,0,62.48a35.75,35.75,0,0,1-35.47,35.36q-30.84.12-61.7,0C69,186.76,53.22,171,53.2,150.32q0-30.47,0-60.95c.06-20.35,15.83-36,36.25-36.12,10.09,0,20.18,0,30.28,0Z"/><path d="M120,74.63c6.9,0,13.8,0,20.7,0a25,25,0,0,1,24.66,24.68q.12,20.11,0,40.24c-.07,15-10.56,25.67-25.45,25.82q-20.7.23-41.39,0c-12.57-.14-23.72-11.3-23.86-23.89q-.24-20.88,0-41.77c.16-14.27,10.74-24.77,25-25.06,6.76-.14,13.53,0,20.3,0Zm36.87,45.27h0c0-6.91.1-13.81,0-20.71a16.37,16.37,0,0,0-15.91-16q-20.5-.18-41,0c-9.6.09-16.64,7.19-16.72,16.82q-.15,20.33,0,40.64a16.37,16.37,0,0,0,16.1,16.21q20.33.15,40.64,0c9.81-.08,16.8-7.16,16.93-17C157,133.19,156.88,126.54,156.88,119.9Z"/><path d="M120,143.2a23.06,23.06,0,0,1-23.12-22.3c-.26-13.62,9.65-23.89,23.25-24.1,12.32-.18,22.94,10.06,23.12,22.3C143.41,132.79,133.56,143,120,143.2ZM105.35,120a14.67,14.67,0,1,0,14.89-14.64A14.53,14.53,0,0,0,105.35,120Z"/><path d="M144.54,90.79a5.28,5.28,0,0,1,.28,10.56c-2.77.32-5.47-2.33-5.57-5.17A5.34,5.34,0,0,1,144.54,90.79Z"/></svg>