<svg viewBox="0 0 240 240" xmlns="http://www.w3.org/2000/svg"><path d="m191.05 96.13c-1 1.63-2 3.28-3 4.91v61.33c0 6.4-3.25 9.68-9.65 9.78-1.53 0-3.07.06-4.62.06h-7.19c-1.15 0-2.28 0-3.41 0a35.84 35.84 0 0 0 -20.62 6.4c-4.35 3-8.81 5.95-13.19 8.89l-1.32.87c-4.09 2.72-9.2 6.16-14 9.44a2.86 2.86 0 0 1 -4.23 0c-4.46-3-9-6.11-13.45-9.07l-.16-.08q-7.48-5-14.54-9.81a36.89 36.89 0 0 0 -21.45-6.64h-.63-8.61c-2.31 0-4.2 0-5.95-.06-5.91-.15-9.16-3.48-9.16-9.39 0-18.94 0-56.32 0-74.79v-6.32c0-7.21 3.2-10.44 10.33-10.47q14.05 0 28.07 0h86.54l5.12-8.24c-5.3 0-10.57 0-15.85 0h-75.87q-14 0-28.07 0c-11.65 0-18.6 7-18.6 18.73v3.36 77.75c0 10.5 6.8 17.4 17.24 17.66 1.83.05 3.77.08 6.16.08l8.58-.06h.63a28.58 28.58 0 0 1 16.79 5.17c4.72 3.25 9.65 6.53 14.43 9.73l.21.13c4.43 3 9 6.06 13.51 9.13s9.07 3.1 13.59 0 9.41-6.4 14.29-9.63l.5-.37c4.54-3 9.16-6.11 13.72-9.23a28 28 0 0 1 16-5h3.36 7.11 4.8c9.89-.15 16.34-5.79 17.55-14.92a3.8 3.8 0 0 0 .23-1.31v-76.42z" fill="#231f20"/><g fill="#fecf16"><path d="m147.93 91.78c-1.66 2.62-3.28 5.24-4.91 7.87a.58.58 0 0 0 -.1.21h-83.85a4 4 0 0 1 0-8.08z"/><path d="m137.77 117.88-1.26 5.51-.6 2.57h-76.84a4 4 0 1 1 0-8.08z"/><path d="m59.09 144h105.63a4 4 0 1 1 0 8.07h-105.63a4 4 0 1 1 0-8.07z"/><path d="m184.73 47.62-2 3.05q-16.56 26.56-33 53.14a10.33 10.33 0 0 0 -1.24 2.91c-1.79 7.56-3.55 15.13-5.27 22.63a8.4 8.4 0 0 0 -.27 2.39 3 3 0 0 0 2.93 3 3.62 3.62 0 0 0 1.55-.37 10.57 10.57 0 0 0 2.05-1.36l3.3-2.69c4-3.21 7.9-6.45 11.83-9.68l.49-.43a20.86 20.86 0 0 0 4.9-5.11c7.5-12.1 15-24.1 22.44-36.1l11.41-18.34c.18-.21.3-.46.49-.7z"/><path d="m163.12 114.25-7.41 6.11c-.55.46-.91.49-1.39.15-.73-.51-1.49-.93-2.18-1.42a.88.88 0 0 1 -.34-.78c.82-3.64 1.67-7.18 2.52-10.81a1.67 1.67 0 0 1 .12-.24c3.23 2 6.41 4.06 9.74 6.11-.3.28-.67.63-1.06.88z"/><path d="m209.74 39.78c-3.12-2-6.26-3.93-9.42-5.86-3-1.82-6.63-.73-8.74 2.59-1 1.63-2 3.25-3 4.87l-.84 1.32-.2.38-.1-.06 1.44.89.42.26 16.21 10 1.73 1.06 1.21-1.93c1-1.52 1.91-3 2.84-4.58 2.06-3.33 1.43-7.04-1.55-8.94z"/></g></svg>