<svg id="Layer_1" data-name="Layer 1" xmlns="http://www.w3.org/2000/svg" viewBox="0 0 240 240"><defs><style>.cls-1{fill:none;stroke:#010101;stroke-linecap:round;stroke-linejoin:round;stroke-width:6.75px;}.cls-1,.cls-2,.cls-3{fill-rule:evenodd;}.cls-2{fill:#fecf16;}.cls-3{fill:#010101;}</style></defs><path class="cls-1" d="M120,45.34A74.66,74.66,0,1,1,45.34,120,74.66,74.66,0,0,1,120,45.34Z"/><path class="cls-2" d="M82.56,86.72h58.67A7.28,7.28,0,0,1,148.49,94v35.08a7.28,7.28,0,0,1-7.26,7.26H107L84.68,150.23l2.19-13.91H82.56a7.29,7.29,0,0,1-7.26-7.26V94a7.29,7.29,0,0,1,7.26-7.26Z"/><path class="cls-2" d="M158.56,108.66h-6.18v20.4a11.17,11.17,0,0,1-11.15,11.15H108.14l-5.29,3.29v.94a6.15,6.15,0,0,0,6.13,6.13h28.91l18.88,11.76-1.84-11.76h3.63a6.15,6.15,0,0,0,6.14-6.13V114.79a6.15,6.15,0,0,0-6.14-6.13Z"/><path class="cls-3" d="M126.55,107.4a4.12,4.12,0,1,1-4.12,4.12,4.12,4.12,0,0,1,4.12-4.12Z"/><path class="cls-3" d="M111.9,107.4a4.12,4.12,0,1,1-4.12,4.12,4.12,4.12,0,0,1,4.12-4.12Z"/><path class="cls-3" d="M97.25,107.4a4.12,4.12,0,1,1-4.12,4.12,4.12,4.12,0,0,1,4.12-4.12Z"/></svg>