<svg id="Layer_1" data-name="Layer 1" xmlns="http://www.w3.org/2000/svg" viewBox="0 0 240 240"><defs><style>.cls-1{fill:none;stroke:#fecf16;stroke-miterlimit:10;stroke-width:2px;}</style></defs><path class="cls-1" d="M121.9,51.59c32.21.4,59.56,22,66.59,52.67a68.84,68.84,0,0,1-48.19,81.42C124.51,190.24,109,189,94,182.5a7.77,7.77,0,0,0-4.29-.48c-10,1.84-19.89,3.84-29.83,5.77-2.74.53-3.15.07-2.73-2.74,1.53-10.36,3.07-20.72,4.52-31.09a4.85,4.85,0,0,0-.63-2.67,68.39,68.39,0,0,1,60.91-99.7ZM70.85,173.42a10.16,10.16,0,0,0,1.21-.08c6.38-1.26,12.77-2.48,19.14-3.82a7,7,0,0,1,5.08.67,54,54,0,0,0,34.09,5.56c30.48-4.82,51-31.86,47.58-62.47-3.7-33.23-36.54-56.14-69.09-48.19a56.45,56.45,0,0,0-35.51,83.62,4.35,4.35,0,0,1,.68,2.46c-.47,3.87-1.11,7.72-1.67,11.58C71.85,166.25,71.37,169.76,70.85,173.42Z"/><path class="cls-1" d="M139.59,153.3c-7.59-.13-14.22-3.15-20.54-7a69.89,69.89,0,0,1-30.57-37.65,19.14,19.14,0,0,1,6.08-21c2.84-2.37,6.13-2.14,9.35-1.44.94.21,1.94,1.56,2.34,2.6,1.71,4.4,3.23,8.87,4.76,13.33a4.83,4.83,0,0,1-1.23,5.12c-1.17,1.25-2.4,2.44-3.62,3.64a2.84,2.84,0,0,0-.62,3.71,52.85,52.85,0,0,0,21,21.73c2.26,1.29,4.25.88,6.07-1.14s3.36-3.79,5-5.75c.87-1.06,1.7-1.38,3-.64,4.57,2.62,9.22,5.12,13.76,7.79a3.25,3.25,0,0,1,1.26,2.28c.32,7-6.36,13.86-13.94,14.34C141,153.33,140.27,153.3,139.59,153.3Z"/><path d="M118.25,51.59c32.21.4,59.56,22,66.58,52.67a68.84,68.84,0,0,1-48.18,81.42c-15.79,4.56-31.26,3.35-46.35-3.18A7.78,7.78,0,0,0,86,182c-10,1.84-19.89,3.84-29.83,5.77-2.75.53-3.15.07-2.74-2.74C55,174.69,56.52,164.33,58,154a4.85,4.85,0,0,0-.63-2.67,68.39,68.39,0,0,1,60.91-99.7Zm-51,121.83a10.16,10.16,0,0,0,1.21-.08c6.38-1.26,12.77-2.48,19.13-3.82a7.07,7.07,0,0,1,5.09.67,53.93,53.93,0,0,0,34.08,5.56c30.49-4.82,51-31.86,47.58-62.47-3.69-33.23-36.53-56.14-69.08-48.19A56.44,56.44,0,0,0,69.7,148.71a4.26,4.26,0,0,1,.67,2.46c-.46,3.87-1.1,7.72-1.66,11.58C68.2,166.25,67.72,169.76,67.2,173.42Z"/><path d="M135.94,153.3c-7.59-.13-14.22-3.15-20.54-7a70,70,0,0,1-30.58-37.65,19.17,19.17,0,0,1,6.08-21c2.85-2.37,6.14-2.14,9.36-1.44.94.21,1.94,1.56,2.34,2.6,1.71,4.4,3.23,8.87,4.76,13.33a4.83,4.83,0,0,1-1.23,5.12c-1.17,1.25-2.4,2.44-3.62,3.64a2.84,2.84,0,0,0-.62,3.71,52.89,52.89,0,0,0,21,21.73c2.26,1.29,4.26.88,6.08-1.14s3.36-3.79,5-5.75c.87-1.06,1.7-1.38,3-.64,4.57,2.62,9.22,5.12,13.76,7.79a3.2,3.2,0,0,1,1.25,2.28c.33,7-6.35,13.86-13.93,14.34C137.31,153.33,136.62,153.3,135.94,153.3Z"/></svg>