<svg id="Layer_1" data-name="Layer 1" xmlns="http://www.w3.org/2000/svg" viewBox="0 0 240 240"><defs><style>.cls-1{fill:#fecf16;}.cls-2{fill:none;stroke:#010101;stroke-linecap:round;stroke-linejoin:round;stroke-width:5.78px;}</style></defs><path class="cls-1" d="M73.35,96.18H57.77l12-22.68a.85.85,0,0,1,.75-.45H81.65Z"/><polygon class="cls-1" points="87.11 73.05 106.36 73.05 98.06 96.18 78.8 96.18 87.11 73.05"/><path class="cls-1" d="M108.19,123a1.16,1.16,0,0,1,1.17,1.16v53.9H75.59v-53.9A1.16,1.16,0,0,1,76.75,123Z"/><polygon class="cls-1" points="136.49 96.18 103.52 96.18 111.81 73.05 128.19 73.05 136.49 96.18"/><polygon class="cls-1" points="141.94 96.18 133.64 73.05 152.9 73.05 161.19 96.18 141.94 96.18"/><path class="cls-1" d="M169,67.91H71V55.43a1.75,1.75,0,0,1,1.75-1.75h94.48A1.75,1.75,0,0,1,169,55.43Z"/><path class="cls-1" d="M158.35,73.05H169.5a.85.85,0,0,1,.75.45l12,22.68H166.65Z"/><rect class="cls-1" x="130.64" y="131.08" width="35.21" height="20.06" rx="0.92"/><path class="cls-1" d="M56.36,101.31v76.78H70.45v-53.9a6.31,6.31,0,0,1,6.3-6.3h31.44a6.31,6.31,0,0,1,6.31,6.3v53.9h69.14V101.31ZM171,150.21a6.06,6.06,0,0,1-6,6.06H131.56a6.06,6.06,0,0,1-6-6.06V132a6.06,6.06,0,0,1,6-6.06h33.37a6.06,6.06,0,0,1,6,6.06Z"/><polygon class="cls-1" points="190.38 183.24 190.38 196.65 190.37 196.67 49.62 196.65 49.63 183.23 190.38 183.24"/><polygon class="cls-1" points="161.19 96.18 141.94 96.18 133.64 73.05 152.9 73.05 161.19 96.18"/><polygon class="cls-1" points="136.49 96.18 103.52 96.18 111.81 73.05 128.19 73.05 136.49 96.18"/><polygon class="cls-1" points="106.36 73.05 98.06 96.18 78.8 96.18 87.11 73.05 106.36 73.05"/><path class="cls-1" d="M169,55.43V67.91H71V55.43a1.75,1.75,0,0,1,1.75-1.75h94.48A1.75,1.75,0,0,1,169,55.43Z"/><path class="cls-1" d="M81.65,73.05l-8.3,23.13H57.77l12-22.68a.85.85,0,0,1,.75-.45Z"/><path class="cls-1" d="M182.23,96.18H166.65l-8.3-23.13H169.5a.85.85,0,0,1,.75.45Z"/><path class="cls-1" d="M109.36,124.19v53.9H75.59v-53.9A1.16,1.16,0,0,1,76.75,123h31.44A1.16,1.16,0,0,1,109.36,124.19Z"/><rect class="cls-1" x="130.64" y="131.08" width="35.21" height="20.06" rx="0.92"/><path class="cls-1" d="M56.36,101.31v76.78H70.45v-53.9a6.31,6.31,0,0,1,6.3-6.3h31.44a6.31,6.31,0,0,1,6.31,6.3v53.9h69.14V101.31ZM171,150.21a6.06,6.06,0,0,1-6,6.06H131.56a6.06,6.06,0,0,1-6-6.06V132a6.06,6.06,0,0,1,6-6.06h33.37a6.06,6.06,0,0,1,6,6.06Z"/><polygon class="cls-1" points="190.38 183.24 190.38 196.65 190.37 196.67 49.62 196.65 49.63 183.23 190.38 183.24"/><polygon class="cls-2" points="177.75 42.03 62.25 42.03 60.77 63.55 46.65 90.54 44.98 96.65 44.98 177.87 37.04 177.87 37.04 208.9 202.96 208.9 202.96 177.87 195.02 177.87 195.02 96.65 193.35 90.54 179.23 63.55 177.75 42.03"/></svg>