<svg id="Layer_1" data-name="Layer 1" xmlns="http://www.w3.org/2000/svg" viewBox="0 0 240 240"><defs><style>.cls-1{fill:none;stroke:#010101;stroke-miterlimit:10;stroke-width:5px;}.cls-2{fill:#fecf16;}</style></defs><path class="cls-1" d="M108.21,205.06l-9.08-9.76L94.18,190c-4.27-4.6-8.63-9.31-12.93-13.87a19.4,19.4,0,0,1-5-17.19Q81.63,129.18,87,99.47l3.62-20c.24-1.33.49-2.65.77-4.08a50.87,50.87,0,0,1-7.26-18.55c-.22-1.13-.36-2.16-.46-2.91,0-.39-.09-.75-.15-1a18.94,18.94,0,0,1,5.73-17.78c7.13-6.77,15.9-8.33,18.78-8.85s5.34-.73,7.63-.94l2.61-.25,1.2-.13,1.2,0c7.18.3,15.61,1.2,23.77,5.54a30.47,30.47,0,0,1,3.39,2.12,20.47,20.47,0,0,1,8.73,20.53c-.95,6-2.81,14.4-7.94,22.18l.16.86c.41,2.12.79,4.14,1.16,6.16l.77,4.25c2.91,16,5.91,32.44,8.82,48.66.1.61.31,1.83.52,3l0,.3c.19,1.1.36,2.14.43,2.48,1.28,6.81,2.38,12.92,3.36,18.68a18.79,18.79,0,0,1-4.54,15.59c-8,8.73-16.24,17.56-24.17,26.1l-3,3.2a16.57,16.57,0,0,1-3.19,2.68l-11.13,7.78Z"/><path class="cls-2" d="M107.58,75.84c8.29,6.24,16.49,6.27,24.85,0,.63,3.37,1.22,6.36,1.77,9.37q4.81,26.43,9.58,52.87c.22,1.22.88,5.21,1,6q1.73,9.18,3.3,18.39a2.75,2.75,0,0,1-.52,2.06q-13.5,14.69-27.11,29.26a4.5,4.5,0,0,1-.56.4l-9.07-9.74c-6-6.43-11.93-12.9-18-19.29a3.41,3.41,0,0,1-.94-3.35Q99.2,122,106.37,82.29C106.73,80.26,107.13,78.24,107.58,75.84Z"/><path class="cls-2" d="M120,40.93c5.88.25,11.62.86,16.91,3.68a13.58,13.58,0,0,1,1.66,1,4.58,4.58,0,0,1,2.18,5c-1.25,7.83-3.47,15.15-9.61,20.67a19.94,19.94,0,0,1-9,4.74c-4,.9-7.49-.73-10.69-2.83-7-4.58-10-11.57-11.58-19.44-.27-1.35-.37-2.73-.64-4.08a3,3,0,0,1,1.07-3c3-2.82,6.7-4,10.57-4.7C113.86,41.43,117,41.26,120,40.93Z"/></svg>